<svg xmlns="http://www.w3.org/2000/svg" xmlns:xlink="http://www.w3.org/1999/xlink" width="500" zoomAndPan="magnify" viewBox="0 0 375 374.999991" height="500" preserveAspectRatio="xMidYMid meet" version="1.0"><defs><clipPath id="d4b45ae024"><path d="M 44 16 L 331.464844 16 L 331.464844 358 L 44 358 Z M 44 16 " clip-rule="nonzero"/></clipPath></defs><g clip-path="url(#d4b45ae024)"><path fill="#ffffff" d="M 55.914062 17.558594 L 220.644531 16.6875 L 221.222656 16.6875 C 251.332031 16.6875 278.835938 29.136719 298.8125 49.113281 C 318.785156 69.089844 331.234375 96.59375 331.234375 126.988281 L 331.234375 127.570312 C 331.234375 151.308594 323.707031 173.023438 310.96875 191.261719 C 301.125 205.15625 288.097656 216.738281 273.042969 225.132812 C 283.46875 239.320312 292.730469 254.371094 300.257812 270.007812 C 310.101562 290.5625 317.339844 312.5625 321.683594 335.144531 L 324.578125 349.621094 L 309.8125 349.910156 C 276.519531 350.777344 249.882812 341.515625 230.488281 322.40625 C 211.378906 303.878906 199.800781 276.085938 195.457031 239.320312 L 195.457031 239.027344 C 193.71875 223.105469 193.429688 209.210938 194.878906 197.917969 C 196.324219 185.46875 199.800781 175.335938 205.300781 167.519531 C 212.539062 157.097656 223.25 151.886719 234.828125 149.859375 C 237.4375 149.570312 240.042969 149.28125 242.648438 148.992188 C 240.910156 147.253906 238.882812 145.519531 236.855469 143.78125 L 232.222656 140.019531 L 232.222656 133.9375 C 232.222656 124.964844 229.039062 118.304688 224.40625 113.671875 C 219.484375 109.039062 212.828125 106.144531 205.011719 105.277344 C 159.269531 98.90625 134.371094 134.515625 123.371094 174.179688 C 119.605469 187.207031 117 200.8125 114.394531 214.421875 C 113.527344 219.34375 112.367188 226 111.210938 232.949219 C 103.683594 276.953125 94.417969 330.511719 62.285156 347.882812 L 44.046875 357.726562 L 44.046875 16.976562 L 56.496094 16.976562 Z M 196.613281 118.59375 C 191.113281 118.59375 186.484375 123.226562 186.484375 128.726562 C 186.484375 134.226562 191.113281 138.859375 196.613281 138.859375 C 202.117188 138.859375 206.746094 134.226562 206.746094 128.726562 C 206.746094 123.226562 202.117188 118.59375 196.613281 118.59375 Z M 220.933594 41.585938 L 68.363281 42.453125 L 68.363281 302.71875 C 77.050781 282.453125 81.972656 254.082031 86.3125 229.1875 C 87.472656 223.105469 88.339844 217.027344 89.789062 210.078125 C 92.394531 195.890625 95.289062 181.707031 99.050781 167.808594 C 113.816406 115.699219 149.714844 73.140625 207.90625 81.25 C 220.644531 82.984375 232.515625 88.195312 241.199219 96.59375 C 249.304688 104.410156 254.804688 115.121094 256.253906 128.4375 C 258.859375 130.753906 261.464844 133.359375 263.492188 135.964844 C 271.597656 147.835938 275.652344 162.019531 275.070312 176.496094 C 259.148438 166.652344 244.09375 167.230469 229.617188 178.234375 C 227.882812 179.390625 226.722656 180.546875 225.566406 182.285156 C 222.671875 186.628906 220.644531 192.707031 219.484375 201.105469 C 218.328125 210.65625 218.617188 222.527344 220.066406 236.421875 C 223.828125 267.402344 233.09375 290.273438 247.859375 304.746094 C 259.4375 316.039062 274.78125 322.695312 293.890625 324.433594 C 289.835938 309.378906 284.625 294.613281 277.964844 280.429688 C 268.992188 261.609375 257.699219 243.949219 244.09375 228.027344 L 232.515625 214.421875 L 249.304688 208.339844 C 262.042969 203.710938 273.625 196.183594 282.886719 186.339844 C 284.335938 184.890625 285.78125 183.152344 286.941406 181.707031 C 288.097656 180.257812 289.546875 178.523438 290.703125 176.785156 C 300.546875 162.890625 306.339844 145.808594 306.339844 127.570312 L 306.339844 126.988281 C 306.339844 103.539062 296.496094 82.117188 281.152344 66.773438 C 265.808594 51.429688 244.382812 41.585938 220.933594 41.585938 L 220.355469 41.585938 Z M 220.933594 41.585938 " fill-opacity="1" fill-rule="nonzero"/></g></svg>